<svg xmlns="http://www.w3.org/2000/svg" style="display:none"><defs><style>.cls-1{isolation:isolate}.cls-2{fill:#161616}</style></defs><symbol id="caret-down" viewBox="0 0 16 9"><path d="M15.7.3A.94.94 0 0 0 15 0H1a.94.94 0 0 0-.7.3A1 1 0 0 0 0 1a.94.94 0 0 0 .3.7l7 7a1 1 0 0 0 1.4 0l7-7A.94.94 0 0 0 16 1a1 1 0 0 0-.3-.7z" fill="#000" fill-rule="nonzero"/></symbol><symbol id="cellphone" viewBox="0 0 16 28"><path d="M13.54 27.12A2.41 2.41 0 0 0 16 24.65V2.47A2.41 2.41 0 0 0 13.54 0H2.46A2.41 2.41 0 0 0 0 2.47v22.18a2.41 2.41 0 0 0 2.46 2.47h11.08zM8 26.09a1.23 1.23 0 1 1 0-2.46 1.23 1.23 0 0 1 0 2.46zM4.92 1.5a.27.27 0 0 1 .28-.27h5.6c.15 0 .275.12.28.27v.08a.27.27 0 0 1-.28.27H5.2a.28.28 0 0 1-.28-.27V1.5zM1.23 3.08h13.54v19.69H1.23V3.08z"/></symbol><symbol id="facebook" viewBox="0 0 26 26"><path d="M19.48 0H6.5A6.53 6.53 0 0 0 0 6.52v13A6.53 6.53 0 0 0 6.5 26h13a6.53 6.53 0 0 0 6.5-6.52v-13A6.53 6.53 0 0 0 19.48 0zm-3 13H14v8.05h-3.06V13H9.29V9.7h1.44V8.3a3.2 3.2 0 0 1 3.45-3.41h2.53v2.74h-1.79c-.29 0-.68.19-.68.83V9.7h2.54l-.3 3.3z"/></symbol><symbol id="instagram" viewBox="0 0 26 26"><path d="M15.3 11.32a2.82 2.82 0 0 0-4.62 0 2.92 2.92 0 0 0-.54 1.68 2.85 2.85 0 0 0 5.7 0 2.92 2.92 0 0 0-.54-1.68z"/><path d="M17.09 11.34a4 4 0 0 1 .33 1.66 4.43 4.43 0 0 1-8.86 0 3.91 3.91 0 0 1 .33-1.65h-2.5V18A1.68 1.68 0 0 0 8 19.59h10A1.68 1.68 0 0 0 19.59 18v-6.66h-2.5zM18.84 6.76h-2.39v2.75h2.73V6.74z"/><path d="M19.46 0H6.52A6.53 6.53 0 0 0 0 6.52v13A6.53 6.53 0 0 0 6.52 26h13A6.53 6.53 0 0 0 26 19.46V6.52A6.56 6.56 0 0 0 19.46 0zM21 11.32V18a3 3 0 0 1-3 3H8a3 3 0 0 1-3-3V8a3 3 0 0 1 3-3h10a3 3 0 0 1 3 3v3.32z"/></symbol><symbol id="line-menu" viewBox="0 0 23 22"><title>line-menu</title><g fill="#283593" fill-rule="nonzero"><path d="M1.9 3.85A1.85 1.85 0 0 1 0 2a1.9 1.9 0 0 1 1.9-2h19.15A2 2 0 0 1 23 2a1.9 1.9 0 0 1-1.95 1.9L1.9 3.85zM21.05 8.57A2 2 0 0 1 23 10.52a1.9 1.9 0 0 1-1.95 1.9H1.9a1.85 1.85 0 0 1-1.9-1.9 1.9 1.9 0 0 1 1.9-1.95h19.15zM21.05 17.2A1.9 1.9 0 0 1 23 19.09a2 2 0 0 1-1.95 2H1.9a1.9 1.9 0 0 1-1.9-2 1.85 1.85 0 0 1 1.9-1.89h19.15z"/></g></symbol><symbol id="linkedin" viewBox="0 0 26 26"><path d="M19.46 0H6.52A6.53 6.53 0 0 0 0 6.52v13A6.53 6.53 0 0 0 6.52 26h13A6.53 6.53 0 0 0 26 19.46V6.52A6.56 6.56 0 0 0 19.46 0zM8.66 21H5V10.31h3.66V21zM6.78 8.66a1.9 1.9 0 1 1 1.9-1.9 1.93 1.93 0 0 1-1.9 1.9zM21.05 21h-3.11v-5.16c0-1.26-.17-2.87-1.88-2.87s-2 1.36-2 2.78V21h-3.13V10.31h2.88v1.44h.09a3.38 3.38 0 0 1 3.15-1.46c3.4 0 4 2 4 4.86V21z"/></symbol><symbol id="logo" viewBox="0 0 133.44 24.37"><title>logo</title><g id="Layer_2" data-name="Layer 2"><g id="Layer_1-2" data-name="Layer 1"><g id="Layer_2-2" data-name="Layer 2"><g id="Layer_1-2-2" data-name="Layer 1-2"><g id="abz-v2-320"><g id="main--6-320"><g id="header"><g id="logo"><g class="cls-1" id="abz.agency"><path class="cls-2" d="M38.35 7.09a4 4 0 0 1 2.86.91 3.44 3.44 0 0 1 1 2.62v7.08c0 .56.22.84.67.84h.77v1.36a2.6 2.6 0 0 1-1.3.29 2 2 0 0 1-1.35-.42 2.11 2.11 0 0 1-.71-1.14h-.09a3.38 3.38 0 0 1-3.07 1.66 5.46 5.46 0 0 1-.83-.07 3.55 3.55 0 0 1-.86-.3 2.94 2.94 0 0 1-.82-.6 3 3 0 0 1-.62-1.05 4.83 4.83 0 0 1-.22-1.53 4.42 4.42 0 0 1 .46-2.13 3.06 3.06 0 0 1 1.37-1.29 7 7 0 0 1 2-.63 15.9 15.9 0 0 1 2.57-.18v-1.63a2.3 2.3 0 0 0-.43-1.51 1.94 1.94 0 0 0-1.56-.53 1.77 1.77 0 0 0-1.49.58 2.21 2.21 0 0 0-.46 1.41v.29h-1.92a3.43 3.43 0 0 1 0-.53A3.16 3.16 0 0 1 35.4 8a4.48 4.48 0 0 1 2.95-.91zm1.85 8.33v-1.16a8.12 8.12 0 0 0-3.24.5 1.84 1.84 0 0 0-1.08 1.86 2.1 2.1 0 0 0 .42 1.47 1.68 1.68 0 0 0 1.28.45 2.48 2.48 0 0 0 1.83-.83 3.17 3.17 0 0 0 .79-2.29zM47.26 18.54h-.12L46.87 20h-1.49V2.65h2v5.93h.12a2.33 2.33 0 0 1 1-1.1 3.45 3.45 0 0 1 1.66-.39 3.11 3.11 0 0 1 2.72 1.65 9.33 9.33 0 0 1 1 4.92c0 4.42-1.31 6.63-3.91 6.63a2.94 2.94 0 0 1-2.71-1.75zm4.6-4.4v-.91a7.53 7.53 0 0 0-.55-3.36 1.8 1.8 0 0 0-1.7-1q-2.27 0-2.26 4.49v.81q0 4.39 2.26 4.4a1.81 1.81 0 0 0 1.7-1 7.48 7.48 0 0 0 .55-3.43zM63.77 7.38v.91l-5.57 10h5.88V20h-8.57v-.94l5.55-9.93H55.9V7.38zM68.66 17.41V20h-2.4v-2.59zM75.55 7.09a4 4 0 0 1 2.86.91 3.44 3.44 0 0 1 1 2.62v7.08c0 .56.22.84.67.84h.77v1.36a2.6 2.6 0 0 1-1.3.29 2 2 0 0 1-1.28-.42 2.11 2.11 0 0 1-.71-1.14h-.16a3.38 3.38 0 0 1-3.07 1.66 5.46 5.46 0 0 1-.83-.07 3.76 3.76 0 0 1-.87-.3 3 3 0 0 1-.81-.6 2.89 2.89 0 0 1-.58-1.05 4.83 4.83 0 0 1-.24-1.53 4.42 4.42 0 0 1 .46-2.13 3 3 0 0 1 1.37-1.29 7 7 0 0 1 2-.63 15.9 15.9 0 0 1 2.57-.18v-1.63a2.3 2.3 0 0 0-.4-1.51 1.94 1.94 0 0 0-1.56-.53 1.77 1.77 0 0 0-1.49.58 2.21 2.21 0 0 0-.46 1.41v.29h-1.97a3.43 3.43 0 0 1 0-.53A3.16 3.16 0 0 1 72.6 8a4.47 4.47 0 0 1 2.95-.91zm1.85 8.33v-1.16a8.12 8.12 0 0 0-3.24.5 1.84 1.84 0 0 0-1.08 1.86 2.1 2.1 0 0 0 .42 1.47 1.68 1.68 0 0 0 1.28.45 2.48 2.48 0 0 0 1.83-.83 3.22 3.22 0 0 0 .79-2.29zM89.88 5.34h1.73a3.33 3.33 0 0 1-.57 2 2.52 2.52 0 0 1-1.54 1.02 4.13 4.13 0 0 1 1.12 3 4.26 4.26 0 0 1-1.09 3.08 3.94 3.94 0 0 1-2.94 1.16h-1.32a1.1 1.1 0 0 0-.81.33 1.1 1.1 0 0 0 0 1.59 1.07 1.07 0 0 0 .81.34h3.6a2.83 2.83 0 0 1 2.16.85 3 3 0 0 1 .82 2.1 3.58 3.58 0 0 1-1 2.57 3.63 3.63 0 0 1-2.73 1h-3.54a3.06 3.06 0 0 1-2.31-.85 3 3 0 0 1-.81-2.15 3.11 3.11 0 0 1 .44-1.67 2.35 2.35 0 0 1 1.19-1 2.1 2.1 0 0 1-1-1.9 2.28 2.28 0 0 1 1.78-2.18 4 4 0 0 1-1.46-3.26 4.25 4.25 0 0 1 1.1-3.12 4 4 0 0 1 3-1.13 3.8 3.8 0 0 1 1.82.45 2.87 2.87 0 0 0 1.55-2.23zm-1.51 14.37h-3.48a1.43 1.43 0 0 0-1.1.41 1.54 1.54 0 0 0-.37 1.06 1.49 1.49 0 0 0 .39 1.06 1.37 1.37 0 0 0 1.08.42h3.48a1.49 1.49 0 0 0 1.49-1.48 1.38 1.38 0 0 0-1.49-1.47zm-.3-10.32a2 2 0 0 0-1.6-.67 1.87 1.87 0 0 0-1.58.7 3 3 0 0 0-.56 1.92 3 3 0 0 0 .56 1.94 1.9 1.9 0 0 0 1.58.67 2 2 0 0 0 1.6-.69 3 3 0 0 0 .56-1.92 3 3 0 0 0-.56-1.95zM97.85 7.09a3.63 3.63 0 0 1 3.15 1.4 7.85 7.85 0 0 1 1 4.51v1.24h-6.84a6.2 6.2 0 0 0 .68 3.24 2.29 2.29 0 0 0 2.08 1 1.88 1.88 0 0 0 1.55-.77 3.33 3.33 0 0 0 .58-2.07h2a4.74 4.74 0 0 1-1.14 3.35 3.86 3.86 0 0 1-3 1.24 4.23 4.23 0 0 1-3.59-1.57 8.45 8.45 0 0 1-1.19-5 8.51 8.51 0 0 1 1.18-5 4.12 4.12 0 0 1 3.54-1.57zm0 1.75a2.18 2.18 0 0 0-1.91.9 5.39 5.39 0 0 0-.76 2.77h4.76c0-2.45-.7-3.67-2.09-3.67zM109.41 7.09c2.08 0 3.13 1.27 3.13 3.81V20h-2v-8.95a2.55 2.55 0 0 0-.46-1.72 1.69 1.69 0 0 0-1.32-.49 2 2 0 0 0-1.67.94 4.21 4.21 0 0 0-.68 2.52V20h-2V7.38H106l.26 1.46h.15a3.24 3.24 0 0 1 3-1.75zM119.16 7.09a3.41 3.41 0 0 1 2.94 1.25 6.26 6.26 0 0 1 .92 3.72h-2a5.68 5.68 0 0 0-.39-2.46 1.47 1.47 0 0 0-1.43-.76q-2.26 0-2.26 4.39v.91q0 4.39 2.26 4.4a1.54 1.54 0 0 0 1.47-.8 5 5 0 0 0 .45-2.42H123a6.15 6.15 0 0 1-1 3.56 3.26 3.26 0 0 1-2.91 1.41 3.63 3.63 0 0 1-3.28-1.6 9.39 9.39 0 0 1-1-5 9.35 9.35 0 0 1 1-5 3.66 3.66 0 0 1 3.35-1.6zM133.44 7.38l-3.22 12a11.19 11.19 0 0 1-1.58 3.62 3 3 0 0 1-2.5 1.33 4.57 4.57 0 0 1-1.41-.19v-1.33h.69c1.27 0 2.1-.94 2.5-2.81l-3.87-12.62h2.16l2.79 9.79h.09l2.36-9.79z"/></g><g id="abz"><path id="Shape" class="cls-2" d="M10.71 16.45l1.3-2 8.25-12.58H3.77l3.86 5.9-1.29 2L0 0h24L12 18.42l-1.29-2zm2.58-8.89l-1.3 2-8.25 12.57h16.49l-3.86-5.9 1.29-2L24 24H0L12 5.59l1.29 2z"/></g></g></g></g></g></g></g></g></g></symbol><symbol id="mail" viewBox="0 0 24 18"><path d="M12 12L9 9.4.54 16.68c.326.295.75.459 1.19.46h20.54a1.73 1.73 0 0 0 1.18-.46L15 9.4 12 12z"/><path d="M23.46.46A1.78 1.78 0 0 0 22.27 0H1.73A1.7 1.7 0 0 0 .55.47L12 10.29 23.46.46zM0 1.5v14.25l8.29-7.04zM15.71 8.71L24 15.75V1.5z"/></symbol><symbol id="phone" viewBox="0 0 20 20"><path d="M4 8.67A17.34 17.34 0 0 0 11.33 16l2.45-2.44a.88.88 0 0 1 1.11-.23 11.46 11.46 0 0 0 4 .67A1 1 0 0 1 20 15.11v3.78A1 1 0 0 1 18.89 20 18.87 18.87 0 0 1 0 1.11 1 1 0 0 1 1.11 0H5a1 1 0 0 1 1.11 1.11 12.44 12.44 0 0 0 .67 4 1.38 1.38 0 0 1-.22 1.11L4 8.67z"/></symbol><symbol id="pinterest" viewBox="0 0 26 26"><path d="M19.48 0H6.5A6.53 6.53 0 0 0 0 6.52v13A6.53 6.53 0 0 0 6.5 26h13a6.53 6.53 0 0 0 6.5-6.52v-13A6.53 6.53 0 0 0 19.48 0zM14.3 16.61a2.8 2.8 0 0 1-2.3-1.15s-.56 2.14-.68 2.55a10.2 10.2 0 0 1-1.74 3.06.14.14 0 0 1-.27-.07 10.77 10.77 0 0 1 0-3.55c.18-.77 1.24-5.08 1.24-5.08a3.46 3.46 0 0 1-.31-1.46c0-1.39.82-2.42 1.85-2.42a1.27 1.27 0 0 1 1.3 1.4 19.34 19.34 0 0 1-.84 3.31 1.45 1.45 0 0 0 1.54 1.8c1.82 0 3.06-2.27 3.06-4.95 0-2-1.43-3.57-4-3.57a4.49 4.49 0 0 0-4.75 4.46 2.67 2.67 0 0 0 .6 1.83.45.45 0 0 1 .14.52c0 .16-.14.58-.2.74a.33.33 0 0 1-.48.23 3.58 3.58 0 0 1-2-3.57c0-2.64 2.31-5.82 6.87-5.82 3.68 0 6.09 2.58 6.09 5.34.06 3.68-2.02 6.4-5.12 6.4z"/></symbol><symbol id="sign-out" viewBox="0 0 24 20"><path d="M9.8 18.12a.31.31 0 0 1 0-.2c0-.06 0-.11-.11-.14-.11-.03-.12-.07-.12-.09 0-.02-.06 0-.18 0H4.41a2.35 2.35 0 0 1-1.73-.72A2.35 2.35 0 0 1 2 15.18V4.41a2.35 2.35 0 0 1 .72-1.73A2.35 2.35 0 0 1 4.41 2h4.9a.45.45 0 0 0 .31-.1.48.48 0 0 0 .15-.3 2.58 2.58 0 0 0 .05-.36v-.4-.31a.45.45 0 0 0-.17-.38.46.46 0 0 0-.34-.15h-4.9a4.27 4.27 0 0 0-3.12 1.29A4.27 4.27 0 0 0 0 4.41v10.77a4.25 4.25 0 0 0 1.29 3.12 4.27 4.27 0 0 0 3.12 1.29h4.9a.45.45 0 0 0 .31-.1.43.43 0 0 0 .15-.3 2.58 2.58 0 0 0 .05-.36v-.4c0-.16-.02-.27-.02-.31z"/><path d="M23.71 9.11L15.38.78a1 1 0 0 0-1.38 0 .92.92 0 0 0-.3.69v4.41H6.86a1 1 0 0 0-1 1v5.87a1 1 0 0 0 1 1h6.85v4.41a.92.92 0 0 0 .3.69 1 1 0 0 0 1.37 0l8.33-8.33a1 1 0 0 0 0-1.37v-.04z"/></symbol><symbol id="twitter" viewBox="0 0 26 26"><path d="M19.46 0H6.52A6.53 6.53 0 0 0 0 6.52v13A6.53 6.53 0 0 0 6.52 26h13A6.53 6.53 0 0 0 26 19.46V6.52A6.56 6.56 0 0 0 19.46 0zm0 9.73v.43A9.32 9.32 0 0 1 10 19.48 9.44 9.44 0 0 1 4.89 18h.78a6.59 6.59 0 0 0 4.12-1.4 3.32 3.32 0 0 1-3.11-2.27c.204.04.412.06.62.06.3.002.6-.038.89-.12a3.29 3.29 0 0 1-2.62-3.22c.452.257.96.398 1.48.41A3.24 3.24 0 0 1 6 7.11a9.55 9.55 0 0 0 6.85 3.43 2.75 2.75 0 0 1-.09-.75 3.29 3.29 0 0 1 3.34-3.27 3.39 3.39 0 0 1 2.44 1 6.37 6.37 0 0 0 2.1-.81 3.38 3.38 0 0 1-1.46 1.82A6.74 6.74 0 0 0 21.09 8a6.63 6.63 0 0 1-1.65 1.73h.02z"/></symbol><symbol id="upload" viewBox="0 0 20 24"><title>upload</title><g fill="#EF6C00" fill-rule="nonzero"><path d="M18.12 14.2a.31.31 0 0 1-.2 0c-.06 0-.11 0-.14.11-.03.11-.07.12-.09.12-.02 0 0 .06 0 .18V19.56A2.46 2.46 0 0 1 15.18 22H4.41a2.35 2.35 0 0 1-1.73-.72A2.35 2.35 0 0 1 2 19.59v-4.9a.45.45 0 0 0-.1-.31.48.48 0 0 0-.3-.15 2.58 2.58 0 0 0-.36-.05H.49a.45.45 0 0 0-.34.15.46.46 0 0 0-.15.34v4.9a4.27 4.27 0 0 0 1.29 3.12A4.27 4.27 0 0 0 4.41 24h10.77a4.4 4.4 0 0 0 4.41-4.41v-4.9a.45.45 0 0 0-.1-.31.43.43 0 0 0-.3-.15 2.58 2.58 0 0 0-.36-.05h-.71v.02z"/><path d="M9.11.29L.78 8.62a1 1 0 0 0 0 1.38.92.92 0 0 0 .69.3h4.41v6.85a1 1 0 0 0 1 1h5.87a1 1 0 0 0 1-1v-6.86h4.41a.92.92 0 0 0 .69-.3 1 1 0 0 0 0-1.37L10.48.29a1 1 0 0 0-1.37 0z"/></g></symbol></svg>